STARTFONT 2.1
FONT -ibm-courier-bold-r-normal--8-80-100-100-m-59-iso8859-2
SIZE 8 100 100
FONTBOUNDINGBOX 9 12 0 -1
COMMENT $Header: courB08.bdf,v 1.1 96/01/22 23:46:50 peterlin Exp $
COMMENT 
COMMENT Copyright International Business Machines,Corp. 1991
COMMENT IBM Courier is a Trademark of the IBM Corporation.
COMMENT 
COMMENT Automatic rendering from Adobe Type 1 outline:
COMMENT Primoz Peterlin <primoz.peterlin@biofiz.mf.uni-lj.si>
COMMENT courb.pfa rendered at 9.000000 points
COMMENT Checksum eb69a063
STARTPROPERTIES 3
FONT_ASCENT 10
FONT_DESCENT 1
DEFAULT_CHAR 32
ENDPROPERTIES
CHARS 191
STARTCHAR space
ENCODING 32
SWIDTH 557 0
DWIDTH 7 0
BBX 0 0 0 1
BITMAP
ENDCHAR
STARTCHAR exclam
ENCODING 33
SWIDTH 557 0
DWIDTH 7 0
BBX 2 8 3 0
BITMAP
40
40
40
40
40
00
c0
c0
ENDCHAR
STARTCHAR quotedbl
ENCODING 34
SWIDTH 557 0
DWIDTH 7 0
BBX 5 4 1 4
BITMAP
d8
d8
90
90
ENDCHAR
STARTCHAR numbersign
ENCODING 35
SWIDTH 557 0
DWIDTH 7 0
BBX 6 9 1 0
BITMAP
d8
d8
48
fc
d8
fc
d8
d8
d8
ENDCHAR
STARTCHAR dollar
ENCODING 36
SWIDTH 557 0
DWIDTH 7 0
BBX 5 10 1 -1
BITMAP
30
78
f8
f8
78
f8
f8
f8
30
30
ENDCHAR
STARTCHAR percent
ENCODING 37
SWIDTH 557 0
DWIDTH 7 0
BBX 7 7 0 1
BITMAP
f0
f0
6c
30
4e
1e
0e
ENDCHAR
STARTCHAR ampersand
ENCODING 38
SWIDTH 557 0
DWIDTH 7 0
BBX 6 7 1 1
BITMAP
78
d0
c0
ec
f8
d8
6c
ENDCHAR
STARTCHAR quoteright
ENCODING 39
SWIDTH 557 0
DWIDTH 7 0
BBX 3 3 2 5
BITMAP
60
40
c0
ENDCHAR
STARTCHAR parenleft
ENCODING 40
SWIDTH 557 0
DWIDTH 7 0
BBX 3 9 3 0
BITMAP
60
40
c0
c0
c0
c0
c0
40
60
ENDCHAR
STARTCHAR parenright
ENCODING 41
SWIDTH 557 0
DWIDTH 7 0
BBX 3 9 1 0
BITMAP
40
40
60
60
60
60
60
40
40
ENDCHAR
STARTCHAR asterisk
ENCODING 42
SWIDTH 557 0
DWIDTH 7 0
BBX 5 5 1 3
BITMAP
20
f8
70
50
50
ENDCHAR
STARTCHAR plus
ENCODING 43
SWIDTH 557 0
DWIDTH 7 0
BBX 6 6 1 2
BITMAP
30
30
30
fc
30
30
ENDCHAR
STARTCHAR comma
ENCODING 44
SWIDTH 557 0
DWIDTH 7 0
BBX 3 3 2 0
BITMAP
60
40
c0
ENDCHAR
STARTCHAR minus
ENCODING 45
SWIDTH 557 0
DWIDTH 7 0
BBX 6 1 1 4
BITMAP
fc
ENDCHAR
STARTCHAR period
ENCODING 46
SWIDTH 557 0
DWIDTH 7 0
BBX 2 2 3 1
BITMAP
c0
c0
ENDCHAR
STARTCHAR slash
ENCODING 47
SWIDTH 557 0
DWIDTH 7 0
BBX 5 10 1 0
BITMAP
08
10
10
10
20
20
40
40
40
80
ENDCHAR
STARTCHAR zero
ENCODING 48
SWIDTH 557 0
DWIDTH 7 0
BBX 5 7 1 1
BITMAP
70
d8
d8
d8
d8
d8
70
ENDCHAR
STARTCHAR one
ENCODING 49
SWIDTH 557 0
DWIDTH 7 0
BBX 5 7 1 1
BITMAP
f0
10
10
30
30
30
f8
ENDCHAR
STARTCHAR two
ENCODING 50
SWIDTH 557 0
DWIDTH 7 0
BBX 5 7 1 1
BITMAP
f0
98
18
10
20
d8
f8
ENDCHAR
STARTCHAR three
ENCODING 51
SWIDTH 557 0
DWIDTH 7 0
BBX 5 7 1 1
BITMAP
78
18
18
30
18
18
f0
ENDCHAR
STARTCHAR four
ENCODING 52
SWIDTH 557 0
DWIDTH 7 0
BBX 5 7 1 1
BITMAP
30
70
70
b0
f8
30
78
ENDCHAR
STARTCHAR five
ENCODING 53
SWIDTH 557 0
DWIDTH 7 0
BBX 5 7 1 1
BITMAP
f8
c0
f0
98
18
18
f0
ENDCHAR
STARTCHAR six
ENCODING 54
SWIDTH 557 0
DWIDTH 7 0
BBX 5 7 1 1
BITMAP
38
40
f0
d8
d8
d8
70
ENDCHAR
STARTCHAR seven
ENCODING 55
SWIDTH 557 0
DWIDTH 7 0
BBX 5 7 1 1
BITMAP
f8
c8
10
10
30
20
20
ENDCHAR
STARTCHAR eight
ENCODING 56
SWIDTH 557 0
DWIDTH 7 0
BBX 6 7 1 1
BITMAP
78
d8
d8
38
cc
cc
78
ENDCHAR
STARTCHAR nine
ENCODING 57
SWIDTH 557 0
DWIDTH 7 0
BBX 6 7 0 1
BITMAP
78
cc
cc
7c
0c
18
70
ENDCHAR
STARTCHAR colon
ENCODING 58
SWIDTH 557 0
DWIDTH 7 0
BBX 2 5 3 1
BITMAP
c0
c0
00
c0
c0
ENDCHAR
STARTCHAR semicolon
ENCODING 59
SWIDTH 557 0
DWIDTH 7 0
BBX 3 6 2 0
BITMAP
60
60
00
60
40
c0
ENDCHAR
STARTCHAR less
ENCODING 60
SWIDTH 557 0
DWIDTH 7 0
BBX 7 6 0 2
BITMAP
06
1c
70
70
1c
06
ENDCHAR
STARTCHAR equal
ENCODING 61
SWIDTH 557 0
DWIDTH 7 0
BBX 6 3 1 3
BITMAP
fc
00
fc
ENDCHAR
STARTCHAR greater
ENCODING 62
SWIDTH 557 0
DWIDTH 7 0
BBX 7 6 0 2
BITMAP
80
e0
38
0c
70
c0
ENDCHAR
STARTCHAR question
ENCODING 63
SWIDTH 557 0
DWIDTH 7 0
BBX 5 8 1 0
BITMAP
f0
d8
18
70
60
00
60
60
ENDCHAR
STARTCHAR at
ENCODING 64
SWIDTH 557 0
DWIDTH 7 0
BBX 8 7 0 1
BITMAP
3c
46
fb
eb
fe
42
3e
ENDCHAR
STARTCHAR A
ENCODING 65
SWIDTH 557 0
DWIDTH 7 0
BBX 7 7 0 1
BITMAP
70
18
28
28
7c
44
ee
ENDCHAR
STARTCHAR B
ENCODING 66
SWIDTH 557 0
DWIDTH 7 0
BBX 7 7 0 1
BITMAP
fc
66
66
7c
66
66
fc
ENDCHAR
STARTCHAR C
ENCODING 67
SWIDTH 557 0
DWIDTH 7 0
BBX 7 7 0 1
BITMAP
3c
66
c6
c0
c0
62
3c
ENDCHAR
STARTCHAR D
ENCODING 68
SWIDTH 557 0
DWIDTH 7 0
BBX 7 7 0 1
BITMAP
fc
66
66
66
66
64
f8
ENDCHAR
STARTCHAR E
ENCODING 69
SWIDTH 557 0
DWIDTH 7 0
BBX 6 7 1 1
BITMAP
fc
cc
fc
f0
fc
cc
fc
ENDCHAR
STARTCHAR F
ENCODING 70
SWIDTH 557 0
DWIDTH 7 0
BBX 6 7 1 1
BITMAP
fc
cc
dc
f8
d8
c0
f0
ENDCHAR
STARTCHAR G
ENCODING 71
SWIDTH 557 0
DWIDTH 7 0
BBX 7 7 0 1
BITMAP
3c
66
c4
c0
ce
66
3e
ENDCHAR
STARTCHAR H
ENCODING 72
SWIDTH 557 0
DWIDTH 7 0
BBX 7 7 0 1
BITMAP
ee
6c
6c
7c
6c
6c
ee
ENDCHAR
STARTCHAR I
ENCODING 73
SWIDTH 557 0
DWIDTH 7 0
BBX 5 7 1 1
BITMAP
f8
30
30
30
30
30
f8
ENDCHAR
STARTCHAR J
ENCODING 74
SWIDTH 557 0
DWIDTH 7 0
BBX 7 7 0 1
BITMAP
3e
0c
0c
4c
cc
cc
78
ENDCHAR
STARTCHAR K
ENCODING 75
SWIDTH 557 0
DWIDTH 7 0
BBX 6 7 1 1
BITMAP
fc
d8
b0
e0
d0
c8
ec
ENDCHAR
STARTCHAR L
ENCODING 76
SWIDTH 557 0
DWIDTH 7 0
BBX 6 7 1 1
BITMAP
e0
c0
c0
c0
cc
cc
fc
ENDCHAR
STARTCHAR M
ENCODING 77
SWIDTH 557 0
DWIDTH 7 0
BBX 7 7 0 1
BITMAP
c6
ee
ee
ee
56
46
ee
ENDCHAR
STARTCHAR N
ENCODING 78
SWIDTH 557 0
DWIDTH 7 0
BBX 7 7 0 1
BITMAP
ee
e6
d6
d6
ce
ce
e6
ENDCHAR
STARTCHAR O
ENCODING 79
SWIDTH 557 0
DWIDTH 7 0
BBX 7 7 0 1
BITMAP
38
64
c6
c6
c6
64
38
ENDCHAR
STARTCHAR P
ENCODING 80
SWIDTH 557 0
DWIDTH 7 0
BBX 6 7 1 1
BITMAP
f8
cc
cc
f8
c0
c0
f0
ENDCHAR
STARTCHAR Q
ENCODING 81
SWIDTH 557 0
DWIDTH 7 0
BBX 7 9 0 -1
BITMAP
38
44
c6
c6
c6
44
38
3e
40
ENDCHAR
STARTCHAR R
ENCODING 82
SWIDTH 557 0
DWIDTH 7 0
BBX 7 7 0 1
BITMAP
fc
66
66
78
68
6c
e6
ENDCHAR
STARTCHAR S
ENCODING 83
SWIDTH 557 0
DWIDTH 7 0
BBX 6 7 1 1
BITMAP
78
cc
c8
78
0c
cc
f8
ENDCHAR
STARTCHAR T
ENCODING 84
SWIDTH 557 0
DWIDTH 7 0
BBX 7 7 0 1
BITMAP
fe
b6
b6
30
30
30
38
ENDCHAR
STARTCHAR U
ENCODING 85
SWIDTH 557 0
DWIDTH 7 0
BBX 7 7 0 1
BITMAP
ee
66
66
66
66
66
3c
ENDCHAR
STARTCHAR V
ENCODING 86
SWIDTH 557 0
DWIDTH 7 0
BBX 7 7 0 1
BITMAP
ee
44
64
28
28
18
10
ENDCHAR
STARTCHAR W
ENCODING 87
SWIDTH 557 0
DWIDTH 7 0
BBX 7 7 0 1
BITMAP
ee
44
54
6c
6c
6c
6c
ENDCHAR
STARTCHAR X
ENCODING 88
SWIDTH 557 0
DWIDTH 7 0
BBX 7 7 0 1
BITMAP
ee
6c
38
30
28
44
ee
ENDCHAR
STARTCHAR Y
ENCODING 89
SWIDTH 557 0
DWIDTH 7 0
BBX 7 7 0 1
BITMAP
ee
6c
2c
38
18
18
38
ENDCHAR
STARTCHAR Z
ENCODING 90
SWIDTH 557 0
DWIDTH 7 0
BBX 7 7 0 1
BITMAP
fe
cc
c8
10
36
66
7e
ENDCHAR
STARTCHAR bracketleft
ENCODING 91
SWIDTH 557 0
DWIDTH 7 0
BBX 3 9 3 0
BITMAP
e0
c0
c0
c0
c0
c0
c0
c0
e0
ENDCHAR
STARTCHAR backslash
ENCODING 92
SWIDTH 557 0
DWIDTH 7 0
BBX 5 10 1 0
BITMAP
80
40
40
40
20
20
10
10
08
08
ENDCHAR
STARTCHAR bracketright
ENCODING 93
SWIDTH 557 0
DWIDTH 7 0
BBX 3 9 1 0
BITMAP
e0
60
60
60
60
60
60
60
e0
ENDCHAR
STARTCHAR asciicircum
ENCODING 94
SWIDTH 557 0
DWIDTH 7 0
BBX 6 5 1 3
BITMAP
30
78
48
48
cc
ENDCHAR
STARTCHAR underscore
ENCODING 95
SWIDTH 557 0
DWIDTH 7 0
BBX 8 1 0 -1
BITMAP
ff
ENDCHAR
STARTCHAR quoteleft
ENCODING 96
SWIDTH 557 0
DWIDTH 7 0
BBX 3 3 2 5
BITMAP
60
40
c0
ENDCHAR
STARTCHAR a
ENCODING 97
SWIDTH 557 0
DWIDTH 7 0
BBX 7 5 0 1
BITMAP
7c
7c
cc
cc
76
ENDCHAR
STARTCHAR b
ENCODING 98
SWIDTH 557 0
DWIDTH 7 0
BBX 7 7 0 1
BITMAP
e0
40
3c
66
66
66
fc
ENDCHAR
STARTCHAR c
ENCODING 99
SWIDTH 557 0
DWIDTH 7 0
BBX 7 5 0 1
BITMAP
7c
c6
c0
c2
3c
ENDCHAR
STARTCHAR d
ENCODING 100
SWIDTH 557 0
DWIDTH 7 0
BBX 7 7 0 1
BITMAP
02
06
7e
c6
c6
c6
3e
ENDCHAR
STARTCHAR e
ENCODING 101
SWIDTH 557 0
DWIDTH 7 0
BBX 7 5 0 1
BITMAP
3c
c6
fe
c2
7c
ENDCHAR
STARTCHAR f
ENCODING 102
SWIDTH 557 0
DWIDTH 7 0
BBX 5 7 1 1
BITMAP
70
60
f8
60
60
60
f8
ENDCHAR
STARTCHAR g
ENCODING 103
SWIDTH 557 0
DWIDTH 7 0
BBX 7 7 0 -1
BITMAP
7e
cc
cc
cc
3c
0c
38
ENDCHAR
STARTCHAR h
ENCODING 104
SWIDTH 557 0
DWIDTH 7 0
BBX 7 7 0 1
BITMAP
60
20
3c
66
66
66
ee
ENDCHAR
STARTCHAR i
ENCODING 105
SWIDTH 557 0
DWIDTH 7 0
BBX 5 9 1 1
BITMAP
20
20
00
00
f0
30
30
30
f8
ENDCHAR
STARTCHAR j
ENCODING 106
SWIDTH 557 0
DWIDTH 7 0
BBX 4 11 1 -1
BITMAP
20
20
00
00
f0
30
30
30
30
b0
e0
ENDCHAR
STARTCHAR k
ENCODING 107
SWIDTH 557 0
DWIDTH 7 0
BBX 7 7 0 1
BITMAP
60
20
3c
70
70
68
6e
ENDCHAR
STARTCHAR l
ENCODING 108
SWIDTH 557 0
DWIDTH 7 0
BBX 5 7 1 1
BITMAP
b0
10
10
30
30
30
f8
ENDCHAR
STARTCHAR m
ENCODING 109
SWIDTH 557 0
DWIDTH 7 0
BBX 7 5 0 1
BITMAP
fc
f6
f6
f6
fe
ENDCHAR
STARTCHAR n
ENCODING 110
SWIDTH 557 0
DWIDTH 7 0
BBX 7 5 0 1
BITMAP
fc
6c
6c
6c
ee
ENDCHAR
STARTCHAR o
ENCODING 111
SWIDTH 557 0
DWIDTH 7 0
BBX 7 5 0 1
BITMAP
7c
c6
c6
c6
38
ENDCHAR
STARTCHAR p
ENCODING 112
SWIDTH 557 0
DWIDTH 7 0
BBX 7 7 0 -1
BITMAP
fc
66
66
66
7c
60
f0
ENDCHAR
STARTCHAR q
ENCODING 113
SWIDTH 557 0
DWIDTH 7 0
BBX 7 7 0 -1
BITMAP
7e
c6
c6
c6
3e
06
1e
ENDCHAR
STARTCHAR r
ENCODING 114
SWIDTH 557 0
DWIDTH 7 0
BBX 6 5 1 1
BITMAP
fc
60
60
60
f0
ENDCHAR
STARTCHAR s
ENCODING 115
SWIDTH 557 0
DWIDTH 7 0
BBX 7 5 1 1
BITMAP
fe
c0
7c
cc
f8
ENDCHAR
STARTCHAR t
ENCODING 116
SWIDTH 557 0
DWIDTH 7 0
BBX 6 7 1 1
BITMAP
c0
c0
f8
c0
c0
c4
78
ENDCHAR
STARTCHAR u
ENCODING 117
SWIDTH 557 0
DWIDTH 7 0
BBX 7 5 0 1
BITMAP
ec
6c
6c
6c
3e
ENDCHAR
STARTCHAR v
ENCODING 118
SWIDTH 557 0
DWIDTH 7 0
BBX 7 5 0 1
BITMAP
ee
44
28
38
10
ENDCHAR
STARTCHAR w
ENCODING 119
SWIDTH 557 0
DWIDTH 7 0
BBX 7 5 0 1
BITMAP
e6
52
5a
7c
2c
ENDCHAR
STARTCHAR x
ENCODING 120
SWIDTH 557 0
DWIDTH 7 0
BBX 7 5 0 1
BITMAP
ee
30
38
6c
ee
ENDCHAR
STARTCHAR y
ENCODING 121
SWIDTH 557 0
DWIDTH 7 0
BBX 7 7 0 -1
BITMAP
ee
6c
28
38
10
30
f0
ENDCHAR
STARTCHAR z
ENCODING 122
SWIDTH 557 0
DWIDTH 7 0
BBX 6 5 1 1
BITMAP
fc
d8
30
4c
fc
ENDCHAR
STARTCHAR braceleft
ENCODING 123
SWIDTH 557 0
DWIDTH 7 0
BBX 3 9 3 0
BITMAP
60
c0
c0
c0
c0
c0
c0
c0
60
ENDCHAR
STARTCHAR bar
ENCODING 124
SWIDTH 557 0
DWIDTH 7 0
BBX 2 10 3 -1
BITMAP
c0
c0
c0
c0
c0
c0
c0
c0
c0
c0
ENDCHAR
STARTCHAR braceright
ENCODING 125
SWIDTH 557 0
DWIDTH 7 0
BBX 4 9 1 0
BITMAP
40
60
20
60
70
60
60
60
c0
ENDCHAR
STARTCHAR asciitilde
ENCODING 126
SWIDTH 557 0
DWIDTH 7 0
BBX 5 2 1 4
BITMAP
48
b8
ENDCHAR
STARTCHAR space
ENCODING 160
SWIDTH 557 0
DWIDTH 7 0
BBX 0 0 0 1
BITMAP
ENDCHAR
STARTCHAR Aogonek
ENCODING 161
SWIDTH 557 0
DWIDTH 7 0
BBX 7 9 0 -1
BITMAP
70
18
28
28
7c
44
ee
0c
06
ENDCHAR
STARTCHAR breve
ENCODING 162
SWIDTH 557 0
DWIDTH 7 0
BBX 4 2 2 7
BITMAP
90
60
ENDCHAR
STARTCHAR Lslash
ENCODING 163
SWIDTH 557 0
DWIDTH 7 0
BBX 7 7 0 1
BITMAP
70
60
58
70
66
66
7e
ENDCHAR
STARTCHAR currency
ENCODING 164
SWIDTH 557 0
DWIDTH 7 0
BBX 6 5 1 2
BITMAP
f8
d8
d8
d8
f8
ENDCHAR
STARTCHAR Lcaron
ENCODING 165
SWIDTH 557 0
DWIDTH 7 0
BBX 7 7 1 1
BITMAP
e4
c0
c0
c0
cc
cc
fc
ENDCHAR
STARTCHAR Sacute
ENCODING 166
SWIDTH 557 0
DWIDTH 7 0
BBX 6 9 1 1
BITMAP
10
00
78
cc
c8
78
0c
cc
f8
ENDCHAR
STARTCHAR section
ENCODING 167
SWIDTH 557 0
DWIDTH 7 0
BBX 5 8 1 0
BITMAP
f8
d8
e0
d0
78
38
d8
f8
ENDCHAR
STARTCHAR dieresis
ENCODING 168
SWIDTH 557 0
DWIDTH 7 0
BBX 2 1 2 7
BITMAP
c0
ENDCHAR
STARTCHAR Scaron
ENCODING 169
SWIDTH 557 0
DWIDTH 7 0
BBX 6 9 1 1
BITMAP
20
00
78
cc
c8
78
0c
cc
f8
ENDCHAR
STARTCHAR Scedilla
ENCODING 170
SWIDTH 557 0
DWIDTH 7 0
BBX 6 9 1 -1
BITMAP
78
cc
c8
78
cc
cc
f8
30
70
ENDCHAR
STARTCHAR Tcaron
ENCODING 171
SWIDTH 557 0
DWIDTH 7 0
BBX 7 9 0 1
BITMAP
10
00
fe
b6
b6
30
30
30
38
ENDCHAR
STARTCHAR Zacute
ENCODING 172
SWIDTH 557 0
DWIDTH 7 0
BBX 7 9 0 1
BITMAP
08
00
fe
cc
c8
10
36
66
7e
ENDCHAR
STARTCHAR hyphen
ENCODING 173
SWIDTH 557 0
DWIDTH 7 0
BBX 3 1 2 4
BITMAP
e0
ENDCHAR
STARTCHAR Zcaron
ENCODING 174
SWIDTH 557 0
DWIDTH 7 0
BBX 7 9 0 1
BITMAP
10
00
fe
cc
c8
10
36
66
7e
ENDCHAR
STARTCHAR Zdotaccent
ENCODING 175
SWIDTH 557 0
DWIDTH 7 0
BBX 7 9 0 1
BITMAP
18
00
fe
cc
c8
10
36
66
7e
ENDCHAR
STARTCHAR degree
ENCODING 176
SWIDTH 557 0
DWIDTH 7 0
BBX 5 3 1 5
BITMAP
f8
d8
70
ENDCHAR
STARTCHAR aogonek
ENCODING 177
SWIDTH 557 0
DWIDTH 7 0
BBX 7 7 0 -1
BITMAP
7c
7c
cc
cc
76
0c
04
ENDCHAR
STARTCHAR ogonek
ENCODING 178
SWIDTH 557 0
DWIDTH 7 0
BBX 3 2 2 0
BITMAP
20
c0
ENDCHAR
STARTCHAR lslash
ENCODING 179
SWIDTH 557 0
DWIDTH 7 0
BBX 5 7 1 1
BITMAP
b0
10
38
70
90
30
f8
ENDCHAR
STARTCHAR acute
ENCODING 180
SWIDTH 557 0
DWIDTH 7 0
BBX 3 1 3 7
BITMAP
40
ENDCHAR
STARTCHAR lcaron
ENCODING 181
SWIDTH 557 0
DWIDTH 7 0
BBX 6 7 1 1
BITMAP
b8
10
10
30
30
30
f8
ENDCHAR
STARTCHAR sacute
ENCODING 182
SWIDTH 557 0
DWIDTH 7 0
BBX 7 7 1 1
BITMAP
10
00
fe
c0
7c
cc
f8
ENDCHAR
STARTCHAR caron
ENCODING 183
SWIDTH 557 0
DWIDTH 7 0
BBX 3 2 2 7
BITMAP
a0
40
ENDCHAR
STARTCHAR cedilla
ENCODING 184
SWIDTH 557 0
DWIDTH 7 0
BBX 2 3 3 -1
BITMAP
c0
c0
c0
ENDCHAR
STARTCHAR scaron
ENCODING 185
SWIDTH 557 0
DWIDTH 7 0
BBX 7 8 1 1
BITMAP
50
20
00
fe
c0
7c
cc
f8
ENDCHAR
STARTCHAR scedilla
ENCODING 186
SWIDTH 557 0
DWIDTH 7 0
BBX 7 7 1 -1
BITMAP
fe
c0
7c
cc
f8
30
70
ENDCHAR
STARTCHAR tcaron
ENCODING 187
SWIDTH 557 0
DWIDTH 7 0
BBX 6 7 1 1
BITMAP
d0
c0
f8
c0
c0
c4
78
ENDCHAR
STARTCHAR zacute
ENCODING 188
SWIDTH 557 0
DWIDTH 7 0
BBX 6 7 1 1
BITMAP
10
00
fc
d8
30
4c
fc
ENDCHAR
STARTCHAR hungarumlaut
ENCODING 189
SWIDTH 557 0
DWIDTH 7 0
BBX 5 2 1 7
BITMAP
f0
a0
ENDCHAR
STARTCHAR zcaron
ENCODING 190
SWIDTH 557 0
DWIDTH 7 0
BBX 6 8 1 1
BITMAP
50
20
00
fc
d8
30
4c
fc
ENDCHAR
STARTCHAR zdotaccent
ENCODING 191
SWIDTH 557 0
DWIDTH 7 0
BBX 6 8 1 1
BITMAP
30
00
00
fc
d8
30
4c
fc
ENDCHAR
STARTCHAR Racute
ENCODING 192
SWIDTH 557 0
DWIDTH 7 0
BBX 7 9 0 1
BITMAP
08
00
fc
66
66
78
68
6c
e6
ENDCHAR
STARTCHAR Aacute
ENCODING 193
SWIDTH 557 0
DWIDTH 7 0
BBX 7 9 0 1
BITMAP
08
00
70
18
28
28
7c
44
ee
ENDCHAR
STARTCHAR Acircumflex
ENCODING 194
SWIDTH 557 0
DWIDTH 7 0
BBX 7 9 0 1
BITMAP
38
00
70
18
28
28
7c
44
ee
ENDCHAR
STARTCHAR Abreve
ENCODING 195
SWIDTH 557 0
DWIDTH 7 0
BBX 7 10 0 1
BITMAP
24
18
00
70
18
28
28
7c
44
ee
ENDCHAR
STARTCHAR Adieresis
ENCODING 196
SWIDTH 557 0
DWIDTH 7 0
BBX 7 9 0 1
BITMAP
30
00
70
18
28
28
7c
44
ee
ENDCHAR
STARTCHAR Lacute
ENCODING 197
SWIDTH 557 0
DWIDTH 7 0
BBX 6 9 1 1
BITMAP
40
00
e0
c0
c0
c0
cc
cc
fc
ENDCHAR
STARTCHAR Cacute
ENCODING 198
SWIDTH 557 0
DWIDTH 7 0
BBX 7 9 0 1
BITMAP
08
00
3c
66
c6
c0
c0
62
3c
ENDCHAR
STARTCHAR Ccedilla
ENCODING 199
SWIDTH 557 0
DWIDTH 7 0
BBX 7 9 0 -1
BITMAP
3c
66
c6
c0
c0
62
3c
0c
1c
ENDCHAR
STARTCHAR Ccaron
ENCODING 200
SWIDTH 557 0
DWIDTH 7 0
BBX 7 9 0 1
BITMAP
10
00
3c
66
c6
c0
c0
62
3c
ENDCHAR
STARTCHAR Eacute
ENCODING 201
SWIDTH 557 0
DWIDTH 7 0
BBX 6 9 1 1
BITMAP
10
00
fc
cc
fc
f0
fc
cc
fc
ENDCHAR
STARTCHAR Eogonek
ENCODING 202
SWIDTH 557 0
DWIDTH 7 0
BBX 6 9 1 -1
BITMAP
fc
cc
fc
f0
fc
cc
fc
18
0c
ENDCHAR
STARTCHAR Edieresis
ENCODING 203
SWIDTH 557 0
DWIDTH 7 0
BBX 6 9 1 1
BITMAP
60
00
fc
cc
fc
f0
fc
cc
fc
ENDCHAR
STARTCHAR Ecaron
ENCODING 204
SWIDTH 557 0
DWIDTH 7 0
BBX 6 9 1 1
BITMAP
20
00
fc
cc
fc
f0
fc
cc
fc
ENDCHAR
STARTCHAR Iacute
ENCODING 205
SWIDTH 557 0
DWIDTH 7 0
BBX 5 9 1 1
BITMAP
10
00
f8
30
30
30
30
30
f8
ENDCHAR
STARTCHAR Icircumflex
ENCODING 206
SWIDTH 557 0
DWIDTH 7 0
BBX 5 9 1 1
BITMAP
70
00
f8
30
30
30
30
30
f8
ENDCHAR
STARTCHAR Dcaron
ENCODING 207
SWIDTH 557 0
DWIDTH 7 0
BBX 7 9 0 1
BITMAP
10
00
fc
66
66
66
66
64
f8
ENDCHAR
STARTCHAR Eth
ENCODING 208
SWIDTH 557 0
DWIDTH 7 0
BBX 7 7 0 1
BITMAP
fc
64
66
f6
66
66
f8
ENDCHAR
STARTCHAR Nacute
ENCODING 209
SWIDTH 557 0
DWIDTH 7 0
BBX 7 9 0 1
BITMAP
08
00
ee
e6
d6
d6
ce
ce
e6
ENDCHAR
STARTCHAR Ncaron
ENCODING 210
SWIDTH 557 0
DWIDTH 7 0
BBX 7 9 0 1
BITMAP
10
00
ee
e6
d6
d6
ce
ce
e6
ENDCHAR
STARTCHAR Oacute
ENCODING 211
SWIDTH 557 0
DWIDTH 7 0
BBX 7 9 0 1
BITMAP
08
00
38
64
c6
c6
c6
64
38
ENDCHAR
STARTCHAR Ocircumflex
ENCODING 212
SWIDTH 557 0
DWIDTH 7 0
BBX 7 9 0 1
BITMAP
38
00
38
64
c6
c6
c6
64
38
ENDCHAR
STARTCHAR Ohungarumlaut
ENCODING 213
SWIDTH 557 0
DWIDTH 7 0
BBX 7 9 0 1
BITMAP
78
50
38
64
c6
c6
c6
64
38
ENDCHAR
STARTCHAR Odieresis
ENCODING 214
SWIDTH 557 0
DWIDTH 7 0
BBX 7 9 0 1
BITMAP
30
00
38
64
c6
c6
c6
64
38
ENDCHAR
STARTCHAR multiply
ENCODING 215
SWIDTH 557 0
DWIDTH 7 0
BBX 5 5 1 2
BITMAP
d8
78
70
d8
48
ENDCHAR
STARTCHAR Rcaron
ENCODING 216
SWIDTH 557 0
DWIDTH 7 0
BBX 7 9 0 1
BITMAP
10
00
fc
66
66
78
68
6c
e6
ENDCHAR
STARTCHAR Uring
ENCODING 217
SWIDTH 557 0
DWIDTH 7 0
BBX 7 10 0 1
BITMAP
38
38
00
ee
66
66
66
66
66
3c
ENDCHAR
STARTCHAR Uacute
ENCODING 218
SWIDTH 557 0
DWIDTH 7 0
BBX 7 9 0 1
BITMAP
08
00
ee
66
66
66
66
66
3c
ENDCHAR
STARTCHAR Uhungarumlaut
ENCODING 219
SWIDTH 557 0
DWIDTH 7 0
BBX 7 9 0 1
BITMAP
78
50
ee
66
66
66
66
66
3c
ENDCHAR
STARTCHAR Udieresis
ENCODING 220
SWIDTH 557 0
DWIDTH 7 0
BBX 7 9 0 1
BITMAP
30
00
ee
66
66
66
66
66
3c
ENDCHAR
STARTCHAR Yacute
ENCODING 221
SWIDTH 557 0
DWIDTH 7 0
BBX 7 9 0 1
BITMAP
08
00
ee
6c
2c
38
18
18
38
ENDCHAR
STARTCHAR Tcedilla
ENCODING 222
SWIDTH 557 0
DWIDTH 7 0
BBX 7 9 0 -1
BITMAP
fe
9a
9e
18
18
18
3c
18
38
ENDCHAR
STARTCHAR germandbls
ENCODING 223
SWIDTH 557 0
DWIDTH 7 0
BBX 6 7 1 1
BITMAP
70
d8
f0
d8
cc
ec
f8
ENDCHAR
STARTCHAR racute
ENCODING 224
SWIDTH 557 0
DWIDTH 7 0
BBX 6 7 1 1
BITMAP
10
00
fc
60
60
60
f0
ENDCHAR
STARTCHAR aacute
ENCODING 225
SWIDTH 557 0
DWIDTH 7 0
BBX 7 7 0 1
BITMAP
08
00
7c
7c
cc
cc
76
ENDCHAR
STARTCHAR acircumflex
ENCODING 226
SWIDTH 557 0
DWIDTH 7 0
BBX 7 8 0 1
BITMAP
10
1c
00
7c
7c
cc
cc
76
ENDCHAR
STARTCHAR abreve
ENCODING 227
SWIDTH 557 0
DWIDTH 7 0
BBX 7 8 0 1
BITMAP
24
18
00
7c
7c
cc
cc
76
ENDCHAR
STARTCHAR adieresis
ENCODING 228
SWIDTH 557 0
DWIDTH 7 0
BBX 7 7 0 1
BITMAP
30
00
7c
7c
cc
cc
76
ENDCHAR
STARTCHAR lacute
ENCODING 229
SWIDTH 557 0
DWIDTH 7 0
BBX 5 10 1 1
BITMAP
20
00
00
b0
10
10
30
30
30
f8
ENDCHAR
STARTCHAR cacute
ENCODING 230
SWIDTH 557 0
DWIDTH 7 0
BBX 7 7 0 1
BITMAP
08
00
7c
c6
c0
c2
3c
ENDCHAR
STARTCHAR ccedilla
ENCODING 231
SWIDTH 557 0
DWIDTH 7 0
BBX 7 7 0 -1
BITMAP
7a
c6
c0
c2
3c
1c
3c
ENDCHAR
STARTCHAR ccaron
ENCODING 232
SWIDTH 557 0
DWIDTH 7 0
BBX 7 8 0 1
BITMAP
28
10
00
7c
c6
c0
c2
3c
ENDCHAR
STARTCHAR eacute
ENCODING 233
SWIDTH 557 0
DWIDTH 7 0
BBX 7 7 0 1
BITMAP
08
00
3c
c6
fe
c2
7c
ENDCHAR
STARTCHAR eogonek
ENCODING 234
SWIDTH 557 0
DWIDTH 7 0
BBX 6 7 1 -1
BITMAP
78
88
fc
84
f8
60
30
ENDCHAR
STARTCHAR edieresis
ENCODING 235
SWIDTH 557 0
DWIDTH 7 0
BBX 7 7 0 1
BITMAP
30
00
3c
c6
fe
c2
7c
ENDCHAR
STARTCHAR ecaron
ENCODING 236
SWIDTH 557 0
DWIDTH 7 0
BBX 7 8 0 1
BITMAP
28
10
00
3c
c6
fe
c2
7c
ENDCHAR
STARTCHAR iacute
ENCODING 237
SWIDTH 557 0
DWIDTH 7 0
BBX 5 7 1 1
BITMAP
10
00
f0
30
30
30
f8
ENDCHAR
STARTCHAR icircumflex
ENCODING 238
SWIDTH 557 0
DWIDTH 7 0
BBX 5 8 1 1
BITMAP
20
38
00
f0
30
30
30
f8
ENDCHAR
STARTCHAR dcaron
ENCODING 239
SWIDTH 557 0
DWIDTH 7 0
BBX 9 7 0 1
BITMAP
0300
0600
7e00
c600
c600
c600
3e00
ENDCHAR
STARTCHAR dbar
ENCODING 240
SWIDTH 557 0
DWIDTH 7 0
BBX 7 7 0 1
BITMAP
02
3e
7e
c6
c6
c6
3e
ENDCHAR
STARTCHAR nacute
ENCODING 241
SWIDTH 557 0
DWIDTH 7 0
BBX 7 7 0 1
BITMAP
08
00
fc
6c
6c
6c
ee
ENDCHAR
STARTCHAR ncaron
ENCODING 242
SWIDTH 557 0
DWIDTH 7 0
BBX 7 8 0 1
BITMAP
28
10
00
fc
6c
6c
6c
ee
ENDCHAR
STARTCHAR oacute
ENCODING 243
SWIDTH 557 0
DWIDTH 7 0
BBX 7 7 0 1
BITMAP
08
00
7c
c6
c6
c6
38
ENDCHAR
STARTCHAR ocircumflex
ENCODING 244
SWIDTH 557 0
DWIDTH 7 0
BBX 7 8 0 1
BITMAP
10
1c
00
7c
c6
c6
c6
38
ENDCHAR
STARTCHAR ohungarumlaut
ENCODING 245
SWIDTH 557 0
DWIDTH 7 0
BBX 7 8 0 1
BITMAP
78
50
00
7c
c6
c6
c6
38
ENDCHAR
STARTCHAR odieresis
ENCODING 246
SWIDTH 557 0
DWIDTH 7 0
BBX 7 7 0 1
BITMAP
30
00
7c
c6
c6
c6
38
ENDCHAR
STARTCHAR divide
ENCODING 247
SWIDTH 557 0
DWIDTH 7 0
BBX 6 6 1 1
BITMAP
10
10
fc
00
10
10
ENDCHAR
STARTCHAR rcaron
ENCODING 248
SWIDTH 557 0
DWIDTH 7 0
BBX 6 8 1 1
BITMAP
50
20
00
fc
60
60
60
f0
ENDCHAR
STARTCHAR uring
ENCODING 249
SWIDTH 557 0
DWIDTH 7 0
BBX 7 8 0 1
BITMAP
38
18
00
ec
6c
6c
6c
3e
ENDCHAR
STARTCHAR uacute
ENCODING 250
SWIDTH 557 0
DWIDTH 7 0
BBX 7 7 0 1
BITMAP
08
00
ec
6c
6c
6c
3e
ENDCHAR
STARTCHAR uhungarumlaut
ENCODING 251
SWIDTH 557 0
DWIDTH 7 0
BBX 7 8 0 1
BITMAP
78
50
00
ec
6c
6c
6c
3e
ENDCHAR
STARTCHAR udieresis
ENCODING 252
SWIDTH 557 0
DWIDTH 7 0
BBX 7 7 0 1
BITMAP
30
00
ec
6c
6c
6c
3e
ENDCHAR
STARTCHAR yacute
ENCODING 253
SWIDTH 557 0
DWIDTH 7 0
BBX 7 9 0 -1
BITMAP
08
00
ee
6c
28
38
10
30
f0
ENDCHAR
STARTCHAR tcedilla
ENCODING 254
SWIDTH 557 0
DWIDTH 7 0
BBX 6 9 1 -1
BITMAP
c0
c0
f8
c0
c0
c4
78
30
70
ENDCHAR
STARTCHAR dotaccent
ENCODING 255
SWIDTH 557 0
DWIDTH 7 0
BBX 2 1 3 8
BITMAP
c0
ENDCHAR
ENDFONT
